<svg xmlns:rdf="http://www.w3.org/1999/02/22-rdf-syntax-ns#" xmlns="http://www.w3.org/2000/svg" xmlns:cc="http://web.resource.org/cc/" xmlns:xlink="http://www.w3.org/1999/xlink" xmlns:dc="http://purl.org/dc/elements/1.1/" xmlns:svg="http://www.w3.org/2000/svg" xml:space="preserve" version="1.1" enable-background="new 0 0 549.388 240.807" width="549.3880004882812" height="240.8070068359375" style=""><rect id="backgroundrect" width="100%" height="100%" x="0" y="0" fill="none" stroke="none"/>
	
	
	
	
	
	
	
	
		<defs>
			<polygon id="SVGID_1_" points="534.67 84.495 225.64 84.495 225.64 21.125 19.623 124.63 225.64 228.13 225.64 164.76 534.67 164.76"/>
		</defs>
		<clipPath id="SVGID_2_">
			<use overflow="visible" xlink:href="#SVGID_1_" id="svg_1"/>
		</clipPath>
		
<metadata><rdf:RDF><cc:Work><dc:format>image/svg+xml</dc:format><dc:type rdf:resource="http://purl.org/dc/dcmitype/StillImage"/><cc:license rdf:resource="http://creativecommons.org/licenses/publicdomain/"/><dc:publisher><cc:Agent rdf:about="http://openclipart.org/"><dc:title>Openclipart</dc:title></cc:Agent></dc:publisher><dc:title>Arrow Design </dc:title><dc:date>2012-09-21T19:23:57</dc:date><dc:description>Arrow Design</dc:description><dc:source>http://openclipart.org/detail/172434/arrow-design--by-bobby520-172434</dc:source><dc:creator><cc:Agent><dc:title>bobby520</dc:title></cc:Agent></dc:creator><dc:subject><rdf:Bag><rdf:li>arrow-point-up-down-left-right-one way-street-car-drive-stop-go</rdf:li><rdf:li>clip art</rdf:li><rdf:li>clipart</rdf:li></rdf:Bag></dc:subject></cc:Work><cc:License rdf:about="http://creativecommons.org/licenses/publicdomain/"><cc:permits rdf:resource="http://creativecommons.org/ns#Reproduction"/><cc:permits rdf:resource="http://creativecommons.org/ns#Distribution"/><cc:permits rdf:resource="http://creativecommons.org/ns#DerivativeWorks"/></cc:License></rdf:RDF></metadata><g class="currentLayer" style=""><title>Layer 1</title><g class="" id="svg_12" fill="#ffffff" fill-opacity="1"><path fill-rule="evenodd" clip-rule="evenodd" d="m538.75 82.07c-0.916-1.143-2.436-1.842-4.077-1.842h-304.07v-8.407h2.404l-2.404-4.14v-46.556c0-0.201-0.017-0.401-0.049-0.599v-6.671c2.904 1.456 4.856 4.167 4.856 7.27v54.963h299.27c0.206 0 0.411 0.006 0.614 0.017l3.46 5.965z" fill="#ffffff" id="svg_2" class="" fill-opacity="1"/><path fill-rule="evenodd" clip-rule="evenodd" d="m547.3 77.899c-2.66-3.778-7.437-6.121-12.627-6.12h-294.26v-8.407h289.36c5.766 0 10.756 2.855 13.171 7.014l4.36 7.513z" fill="#ffffff" id="svg_3" class="" fill-opacity="1"/><path fill-rule="evenodd" clip-rule="evenodd" d="m229.72 18.699c-1.457-1.818-4.319-2.391-6.572-1.259l-206.02 103.5c-0.739 0.371-1.354 0.9-1.784 1.537-0.748 1.104-0.854 2.378-0.418 3.502l-3.464-5.967c0.802-1.055 1.894-1.97 3.245-2.648l206.02-103.5c1.493-0.75 3.19-1.146 4.919-1.146 0.206 0 0.41 0.006 0.612 0.017l3.46 5.968z" fill="#ffffff" id="svg_4" class="" fill-opacity="1"/><path fill-rule="evenodd" clip-rule="evenodd" d="m14.966 126.09c0.381 0.905 1.119 1.706 2.161 2.229l206.02 103.5c0.757 0.381 1.619 0.581 2.497 0.581 2.736 0 4.954-1.91 4.954-4.267v-59.103h304.08c2.736 0 4.954-1.91 4.954-4.268v-80.265c0.001-0.202-0.016-0.404-0.049-0.604v-6.666c2.904 1.456 4.856 4.167 4.856 7.27v80.269c0 4.644-4.37 8.407-9.762 8.407h-299.28v54.963c0 1.489-0.458 2.95-1.33 4.236-2.716 4.01-8.693 5.365-13.35 3.025l-206.02-103.51c-1.455-0.73-2.665-1.772-3.513-3.025-1.128-1.666-1.517-3.528-1.251-5.305l5.03 2.53z" fill="#ffffff" id="svg_5" class="" fill-opacity="1"/><path fill-rule="evenodd" clip-rule="evenodd" d="m238.27 14.531c-4.167-5.921-13.093-7.891-20.063-4.389l-206.03 103.51c-2.202 1.105-4.034 2.684-5.318 4.58-2.384 3.522-2.582 7.625-0.948 11.138l-4.357-7.505c-2.147-3.697-2.153-8.227 0.446-12.064 1.279-1.889 3.104-3.46 5.296-4.563l206.02-103.51c7.02-3.527 16.031-1.485 20.126 4.561 0.16 0.236 0.31 0.476 0.451 0.719l4.37 7.521z" fill="#ffffff" id="svg_6" class="" fill-opacity="1"/><path fill-rule="evenodd" clip-rule="evenodd" d="m240.36 177.44v50.696c0 6.999-6.588 12.674-14.715 12.674-2.606 0-5.165-0.596-7.416-1.727l-206.01-103.5c-7.02-3.527-9.391-11.288-5.296-17.335 1.279-1.888 3.104-3.459 5.296-4.561l206.02-103.5c7.021-3.526 16.031-1.484 20.126 4.562 1.313 1.938 2.004 4.142 2.004 6.386v50.695h294.31c8.128 0 14.716 5.675 14.716 12.674v80.269c0 7-6.588 12.674-14.716 12.674h-294.31zm-4.91-4.23h299.22c5.418 0 9.811-3.782 9.811-8.449v-80.265c0-4.666-4.393-8.448-9.811-8.448h-299.22v-54.922c0-1.496-0.461-2.965-1.336-4.258-2.73-4.03-8.737-5.392-13.417-3.04l-206.01 103.5c-1.461 0.733-2.678 1.781-3.531 3.041-2.73 4.03-1.149 9.204 3.531 11.556l206.02 103.5c1.5 0.754 3.206 1.151 4.943 1.151 5.417 0 9.81-3.783 9.81-8.449v-54.92z" fill="#ffffff" id="svg_7" class="" fill-opacity="1"/><path fill-rule="evenodd" clip-rule="evenodd" d="m235.45 173.21v54.921c0 4.666-4.393 8.449-9.81 8.449-1.738 0-3.443-0.397-4.943-1.151l-206.02-103.5c-4.68-2.352-6.261-7.525-3.531-11.556 0.853-1.26 2.069-2.308 3.531-3.041l206.02-103.5c4.68-2.352 10.687-0.99 13.417 3.04 0.875 1.293 1.336 2.762 1.336 4.258v54.921h299.22c5.418 0 9.811 3.782 9.811 8.448v80.269c0 4.667-4.393 8.449-9.811 8.449h-299.23v-0.01zm-4.9-4.22h304.12c2.709 0 4.905-1.893 4.905-4.226v-80.265c0-2.333-2.196-4.224-4.905-4.224h-304.13v-59.146c0-0.748-0.23-1.482-0.668-2.128-1.365-2.016-4.369-2.697-6.709-1.521l-206.02 103.5c-0.731 0.368-1.339 0.892-1.765 1.521-1.365 2.016-0.575 4.603 1.765 5.777l206.02 103.5c0.75 0.378 1.604 0.576 2.472 0.576 2.709 0 4.905-1.892 4.905-4.225v-59.15h0.01z" fill="#ffffff" id="svg_8" class="" fill-opacity="1"/><path fill-rule="evenodd" clip-rule="evenodd" d="m230.55 168.99v59.145c0 2.333-2.196 4.225-4.905 4.225-0.869 0-1.722-0.198-2.472-0.576l-206.02-103.5c-2.34-1.175-3.13-3.762-1.765-5.777 0.426-0.629 1.034-1.152 1.765-1.521l206.02-103.5c2.34-1.176 5.344-0.494 6.709 1.521 0.438 0.646 0.668 1.38 0.668 2.128v59.146h304.12c2.709 0 4.905 1.891 4.905 4.224v80.269c0 2.333-2.196 4.226-4.905 4.226h-304.13v-0.01zm304.12-84.495h-309.03v-63.37l-206.02 103.5 206.02 103.5v-63.37h309.03v-80.255z" fill="#ffffff" id="svg_9" class="" fill-opacity="1"/><g clip-path="url(#SVGID_2_)" id="svg_10" class="" fill="#ffffff" fill-opacity="1">
			<defs>
				<rect id="SVGID_3_" y="21.125" x="19.62299919128418" width="515.0499877929688" height="207.00999450683594" fill="#ffffff" fill-opacity="1"/>
			</defs>
			<clipPath id="SVGID_4_">
				<use overflow="visible" xlink:href="#SVGID_3_" id="svg_11"/>
			</clipPath>
		</g></g><path fill="#d50b0b" fill-opacity="1" stroke="none" stroke-opacity="1" stroke-width="1" stroke-dasharray="none" stroke-linejoin="miter" stroke-linecap="butt" stroke-dashoffset="" fill-rule="nonzero" opacity="1" marker-start="" marker-mid="" marker-end="" id="svg_13" d="M37.91675091735962,123.31355758430004 " style="color: rgb(0, 0, 0);"/><path fill="#ffffff" fill-opacity="1" stroke="none" stroke-opacity="1" stroke-width="1" stroke-dasharray="none" stroke-linejoin="miter" stroke-linecap="butt" stroke-dashoffset="" fill-rule="nonzero" opacity="1" marker-start="" marker-mid="" marker-end="" id="svg_14" d="M380.24479583642943,79.92731386967296 " style="color: rgb(0, 0, 0);"/></g></svg>